<mxfile host="app.diagrams.net" modified="2023-06-04T18:07:01.262Z" agent="Mozilla/5.0 (Windows NT 10.0; Win64; x64) AppleWebKit/537.36 (KHTML, like Gecko) Chrome/114.0.0.0 Safari/537.36" version="21.3.4" etag="11gd--mEuybMUH19x_Q2" type="github">
  <diagram name="PÃ¡gina-1" id="dPfKfrpmaYNsyoNoT02U">
    <mxGraphModel>
      <root>
        <mxCell id="0" />
        <mxCell id="1" parent="0" />
      </root>
    </mxGraphModel>
  </diagram>
</mxfile>
